<svg id="visual" viewBox="0 0 900 600" width="900" height="600" xmlns="http://www.w3.org/2000/svg" xmlns:xlink="http://www.w3.org/1999/xlink" version="1.1"><rect x="0" y="0" width="900" height="600" fill="#d2c1a1"></rect><path d="M325 0L488 0L488 35L489 35L489 71L555 71L555 106L536 106L536 141L482 141L482 176L544 176L544 212L569 212L569 247L352 247L352 282L464 282L464 318L567 318L567 353L541 353L541 388L421 388L421 424L595 424L595 459L412 459L412 494L453 494L453 529L322 529L322 565L535 565L535 600L0 600L0 565L0 565L0 529L0 529L0 494L0 494L0 459L0 459L0 424L0 424L0 388L0 388L0 353L0 353L0 318L0 318L0 282L0 282L0 247L0 247L0 212L0 212L0 176L0 176L0 141L0 141L0 106L0 106L0 71L0 71L0 35L0 35L0 0L0 0Z" fill="#ffffff"></path><path d="M415 0L486 0L486 35L497 35L497 71L364 71L364 106L411 106L411 141L257 141L257 176L269 176L269 212L436 212L436 247L333 247L333 282L479 282L479 318L273 318L273 353L334 353L334 388L432 388L432 424L300 424L300 459L420 459L420 494L406 494L406 529L298 529L298 565L337 565L337 600L0 600L0 565L0 565L0 529L0 529L0 494L0 494L0 459L0 459L0 424L0 424L0 388L0 388L0 353L0 353L0 318L0 318L0 282L0 282L0 247L0 247L0 212L0 212L0 176L0 176L0 141L0 141L0 106L0 106L0 71L0 71L0 35L0 35L0 0L0 0Z" fill="#cfccc8"></path><path d="M313 0L234 0L234 35L219 35L219 71L200 71L200 106L234 106L234 141L195 141L195 176L293 176L293 212L326 212L326 247L272 247L272 282L214 282L214 318L411 318L411 353L204 353L204 388L270 388L270 424L240 424L240 459L361 459L361 494L377 494L377 529L324 529L324 565L405 565L405 600L0 600L0 565L0 565L0 529L0 529L0 494L0 494L0 459L0 459L0 424L0 424L0 388L0 388L0 353L0 353L0 318L0 318L0 282L0 282L0 247L0 247L0 212L0 212L0 176L0 176L0 141L0 141L0 106L0 106L0 71L0 71L0 35L0 35L0 0L0 0Z" fill="#a09b93"></path><path d="M151 0L229 0L229 35L268 35L268 71L232 71L232 106L264 106L264 141L291 141L291 176L279 176L279 212L217 212L217 247L330 247L330 282L284 282L284 318L291 318L291 353L236 353L236 388L268 388L268 424L197 424L197 459L223 459L223 494L268 494L268 529L287 529L287 565L179 565L179 600L0 600L0 565L0 565L0 529L0 529L0 494L0 494L0 459L0 459L0 424L0 424L0 388L0 388L0 353L0 353L0 318L0 318L0 282L0 282L0 247L0 247L0 212L0 212L0 176L0 176L0 141L0 141L0 106L0 106L0 71L0 71L0 35L0 35L0 0L0 0Z" fill="#746c62"></path><path d="M93 0L132 0L132 35L135 35L135 71L247 71L247 106L224 106L224 141L179 141L179 176L140 176L140 212L237 212L237 247L89 247L89 282L190 282L190 318L228 318L228 353L141 353L141 388L248 388L248 424L203 424L203 459L171 459L171 494L95 494L95 529L96 529L96 565L193 565L193 600L0 600L0 565L0 565L0 529L0 529L0 494L0 494L0 459L0 459L0 424L0 424L0 388L0 388L0 353L0 353L0 318L0 318L0 282L0 282L0 247L0 247L0 212L0 212L0 176L0 176L0 141L0 141L0 106L0 106L0 71L0 71L0 35L0 35L0 0L0 0Z" fill="#4a4135"></path><path d="M117 0L106 0L106 35L103 35L103 71L111 71L111 106L30 106L30 141L94 141L94 176L79 176L79 212L91 212L91 247L52 247L52 282L82 282L82 318L93 318L93 353L62 353L62 388L160 388L160 424L22 424L22 459L84 459L84 494L127 494L127 529L103 529L103 565L44 565L44 600L0 600L0 565L0 565L0 529L0 529L0 494L0 494L0 459L0 459L0 424L0 424L0 388L0 388L0 353L0 353L0 318L0 318L0 282L0 282L0 247L0 247L0 212L0 212L0 176L0 176L0 141L0 141L0 106L0 106L0 71L0 71L0 35L0 35L0 0L0 0Z" fill="#241a0a"></path></svg>